<svg width="77" height="113" viewBox="0 0 77 113" version="1.1" xmlns="http://www.w3.org/2000/svg" xmlns:xlink="http://www.w3.org/1999/xlink">
<title>Group</title>
<desc>Created using Figma</desc>
<g id="Canvas" transform="translate(-17674 -2780)">
<g id="Group">
<g id="Group">
<g id="Vector">
<use xlink:href="#path0_fill" transform="matrix(-1 0 0 1 17751 2780)" fill="currentColor"/>
</g>
</g>
<g id="Group">
<g id="Vector">
<use xlink:href="#path1_fill" transform="matrix(-1 0 0 1 17742.1 2790.59)" fill="currentColor"/>
</g>
</g>
<g id="Group">
<g id="Vector">
<use xlink:href="#path2_fill" transform="matrix(-1 0 0 1 17738.4 2796.16)" fill="currentColor"/>
</g>
</g>
<g id="Group">
<g id="Vector">
<use xlink:href="#path3_fill" transform="matrix(-1 0 0 1 17735.5 2783.02)" fill="currentColor"/>
</g>
</g>
<g id="Group">
<g id="Vector">
<use xlink:href="#path4_fill" transform="matrix(-1 0 0 1 17744.2 2783.92)" fill="currentColor"/>
</g>
</g>
<g id="Group">
<g id="Vector">
<use xlink:href="#path5_fill" transform="matrix(-1 0 0 1 17747.8 2790.94)" fill="currentColor"/>
</g>
</g>
<g id="Group">
<g id="Vector">
<use xlink:href="#path6_fill" transform="matrix(-1 0 0 1 17743.5 2804.02)" fill="currentColor"/>
</g>
</g>
<g id="Group">
<g id="Vector">
<use xlink:href="#path7_fill" transform="matrix(-1 0 0 1 17737.1 2809.03)" fill="currentColor"/>
</g>
</g>
<g id="Group">
<g id="Vector">
<use xlink:href="#path8_fill" transform="matrix(-1 0 0 1 17729.4 2829.66)" fill="currentColor"/>
</g>
</g>
<g id="Group">
<g id="Vector">
<use xlink:href="#path9_fill" transform="matrix(-1 0 0 1 17712.2 2824.8)" fill="currentColor"/>
</g>
</g>
<g id="Group">
<g id="Vector">
<use xlink:href="#path10_fill" transform="matrix(-1 0 0 1 17704.5 2846.58)" fill="currentColor"/>
</g>
</g>
<g id="Group">
<g id="Vector">
<use xlink:href="#path11_fill" transform="matrix(-1 0 0 1 17695.2 2858.34)" fill="currentColor"/>
</g>
</g>
<g id="Group">
<g id="Vector">
<use xlink:href="#path12_fill" transform="matrix(-1 0 0 1 17707.2 2844.44)" fill="currentColor"/>
</g>
</g>
<g id="Group">
<g id="Vector">
<use xlink:href="#path13_fill" transform="matrix(-1 0 0 1 17731.2 2809.02)" fill="currentColor"/>
</g>
</g>
<g id="Group">
<g id="Vector">
<use xlink:href="#path14_fill" transform="matrix(-1 0 0 1 17724.3 2808.06)" fill="currentColor"/>
</g>
</g>
<g id="Group">
<g id="Vector">
<use xlink:href="#path15_fill" transform="matrix(-1 0 0 1 17739.7 2815.53)" fill="currentColor"/>
</g>
</g>
<g id="Group">
<g id="Vector">
<use xlink:href="#path16_fill" transform="matrix(-1 0 0 1 17741.1 2804)" fill="currentColor"/>
</g>
</g>
<g id="Group">
<g id="Vector">
<use xlink:href="#path17_fill" transform="matrix(-1 0 0 1 17722.4 2838.24)" fill="currentColor"/>
</g>
</g>
<g id="Group">
<g id="Vector">
<use xlink:href="#path18_fill" transform="matrix(-1 0 0 1 17728.6 2818.39)" fill="currentColor"/>
</g>
</g>
<g id="Group">
<g id="Vector">
<use xlink:href="#path19_fill" transform="matrix(-1 0 0 1 17735.8 2812.8)" fill="currentColor"/>
</g>
</g>
<g id="Group">
<g id="Vector">
<use xlink:href="#path20_fill" transform="matrix(-1 0 0 1 17732.1 2830.18)" fill="currentColor"/>
</g>
</g>
<g id="Group">
<g id="Vector">
<use xlink:href="#path21_fill" transform="matrix(-1 0 0 1 17730.7 2827.24)" fill="currentColor"/>
</g>
</g>
<g id="Group">
<g id="Vector">
<use xlink:href="#path22_fill" transform="matrix(-1 0 0 1 17715.4 2832.65)" fill="currentColor"/>
</g>
</g>
</g>
</g>
<defs>
<path id="path0_fill" d="M 76.1749 113C 76.1426 113 76.1103 113 76.1103 113C 74.9786 112.935 73.168 111.729 72.3597 111.143C 72.1657 111.338 71.8424 111.566 71.4221 111.697C 70.7754 111.892 70.0318 111.762 69.2558 111.306C 68.8032 111.045 68.3828 110.947 68.0595 111.078C 67.5422 111.273 67.2835 111.892 67.2835 111.892C 67.2189 112.022 67.1219 112.153 66.9602 112.185C 66.8309 112.218 63.9856 112.935 59.7178 108.894C 56.5815 105.929 49.5978 87.6494 45.4269 76.7011C 44.0366 73.0843 42.9373 70.2168 42.5493 69.4022C 41.3854 67.0236 38.7988 65.0685 37.7641 64.3517C 37.5378 64.8404 37.2145 65.7528 36.8265 67.1865C 36.3739 68.946 36.1799 69.2393 35.6302 70.0539C 35.3715 70.4449 35.0159 70.9663 34.5309 71.846C 33.173 74.1921 34.8219 76.2449 34.8866 76.3427C 35.0159 76.5056 35.0482 76.7337 34.9189 76.8966C 34.8219 77.0595 34.5956 77.1573 34.4016 77.1247C 34.3692 77.1247 31.7827 76.6034 28.4201 77.6135C 25.7042 78.4281 23.4086 79.9921 23.3763 79.9921C 23.2146 80.0899 22.9883 80.0899 22.8266 79.9921C 22.6649 79.8944 22.568 79.6989 22.6326 79.5034C 22.665 79.4056 23.1176 77.1899 25.8335 76.0494C 26.7712 75.6584 27.4501 75.4955 27.9351 75.3652C 28.6788 75.1696 29.0021 75.0719 29.5517 74.518C 30.5217 73.5404 31.1037 70.8359 31.3623 69.5651C 31.5563 68.6202 31.136 66.9584 30.7157 65.3618C 30.5217 64.5798 30.2954 63.7651 30.1337 62.9831C 29.9397 61.973 28.6464 61.3539 26.7388 60.409C 24.7989 59.464 22.374 58.291 19.7874 56.0753C 15.4548 52.3606 13.1916 47.8966 10.8313 43.1719C 10.314 42.1292 9.76436 41.0213 9.18238 39.946C 6.33713 34.6022 7.59809 27.5966 8.34174 23.4258C 8.43873 22.9696 8.5034 22.5134 8.56806 22.1224C 9.15004 18.7011 3.55655 16.8438 3.49189 16.8438C 2.1986 16.4853 0.614314 16.8438 0.614314 16.8438C 0.484985 16.8764 0.323323 16.8438 0.193994 16.746C 0.0646646 16.6808 0 16.5179 0 16.3876C 0 13.2269 2.52192 11.4999 3.23323 11.0764C 7.63043 -1.66411 24.5402 0.0628617 24.7019 0.095446C 24.9282 0.12803 25.1222 0.323536 25.1222 0.551626C 25.1222 0.779716 24.9929 1.00781 24.7342 1.04039C 23.1499 1.39882 21.986 2.34376 21.307 2.99545L 21.6303 2.99545C 23.1176 2.99545 24.3786 3.67972 24.4432 3.7123C 24.6049 3.81005 24.7019 3.97298 24.7019 4.16848C 24.7019 4.36399 24.5726 4.52691 24.4109 4.59208C 20.3047 6.28646 20.4017 9.83815 20.4987 10.555C 21.016 11.2067 23.4409 14.4651 24.5402 19.1247C 24.6696 19.6134 24.7666 20.1022 24.8635 20.5584C 25.3809 23.1325 25.8012 25.1853 29.1961 27.2707C 29.6811 27.564 30.166 27.8573 30.651 28.1505C 34.4339 30.3988 38.7018 32.9404 45.8795 42.8786C 53.5746 53.5011 56.5815 68.1966 56.8402 69.5977C 58.5538 72.009 58.7155 74.1595 58.7155 74.2247C 58.7155 74.3876 58.6508 74.5505 58.5215 74.6483C 58.3922 74.7461 58.1982 74.7786 58.0365 74.6809L 57.3252 74.355C 60.0734 79.4382 70.2581 98.2719 72.877 103.16L 73.0064 103.388C 76.3043 109.513 77.4359 111.664 76.8539 112.576C 76.8216 112.772 76.5952 113 76.1749 113ZM 72.2627 109.97C 72.3597 109.97 72.4567 110.002 72.5537 110.067C 73.2327 110.556 75.108 111.86 76.0779 111.99C 76.0779 111.078 74.1703 107.591 72.1981 103.909L 72.0687 103.681C 69.0295 98.0438 55.9672 73.8663 55.8379 73.6382C 55.7409 73.4427 55.7732 73.2146 55.9026 73.0843C 56.0319 72.9539 56.2582 72.8887 56.4522 72.9539L 57.6162 73.4753C 57.4222 72.6932 56.9695 71.4225 55.9996 70.1191C 55.9672 70.0539 55.9349 69.9887 55.9026 69.9236C 55.8702 69.7607 52.9927 54.4135 45.0712 43.4977C 37.9905 33.7224 33.8196 31.246 30.1337 29.0303C 29.6487 28.737 29.1314 28.4438 28.6464 28.1505C 24.9282 25.8044 24.4432 23.3606 23.9259 20.7539C 23.8289 20.2977 23.7319 19.8089 23.6349 19.3528C 22.471 14.4651 19.7227 11.1089 19.6904 11.0764C 19.6257 11.0112 19.5934 10.9134 19.5934 10.8483C 19.5934 10.8157 18.9791 6.54713 23.0529 4.23365C 22.665 4.10331 22.18 4.03814 21.695 4.03814L 20.3047 4.03814C 20.1107 4.03814 19.949 3.94039 19.8844 3.77747C 19.7874 3.61455 19.8197 3.41904 19.9167 3.28871C 19.949 3.22354 20.822 1.98533 22.4063 1.04039C 17.7504 0.975222 7.21011 2.11567 4.1062 11.5651C 4.07387 11.6955 3.97687 11.7932 3.87988 11.8584C 3.84755 11.891 1.35796 13.2269 1.03463 15.8011C 1.71361 15.7033 2.78058 15.6382 3.78288 15.9314C 4.07387 16.0292 10.2493 18.082 9.53803 22.3505C 9.47337 22.7415 9.4087 23.1977 9.31171 23.6539C 8.60039 27.7269 7.37177 34.5045 10.0553 39.555C 10.6373 40.6303 11.187 41.7382 11.7043 42.7809C 14.0322 47.4078 16.2308 51.7741 20.434 55.3584C 22.9236 57.4764 25.2839 58.6168 27.1915 59.5618C 29.2931 60.5719 30.8127 61.3213 31.1037 62.8202C 31.2653 63.5696 31.4593 64.3517 31.6533 65.1337C 32.106 66.9258 32.5586 68.5876 32.3 69.7932C 31.9767 71.2921 31.3947 74.0618 30.2307 75.2674C 29.4871 76.0168 28.9697 76.1472 28.1938 76.3427C 27.7088 76.473 27.0945 76.6359 26.2215 76.9944C 25.3162 77.3528 24.7342 77.8741 24.3462 78.3303C 25.3162 77.809 26.6742 77.1573 28.1614 76.7011C 30.4894 76.0168 32.4616 75.9843 33.5933 76.082C 33.1083 75.0719 32.6233 73.2798 33.6903 71.3899C 34.2076 70.4775 34.5632 69.9236 34.8219 69.5326C 35.3392 68.7831 35.4685 68.555 35.8889 66.9584C 36.5355 64.3842 37.1175 63.4393 37.1498 63.3741C 37.2792 63.146 37.5701 63.0809 37.8288 63.2112C 37.9905 63.309 41.838 65.6876 43.4223 68.946C 43.8426 69.7932 44.8773 72.5303 46.3322 76.3101C 50.2121 86.4438 57.4222 105.31 60.3644 108.145C 63.5653 111.175 65.8286 111.273 66.5076 111.24C 66.7016 110.915 67.0572 110.361 67.7039 110.133C 68.3182 109.904 68.9972 110.002 69.7408 110.458C 70.2904 110.784 70.7431 110.882 71.1311 110.752C 71.5837 110.621 71.8101 110.23 71.8101 110.23C 71.8747 110.1 72.0041 110.002 72.1334 109.97C 72.1981 109.97 72.2304 109.97 72.2627 109.97Z"/>
<path id="path1_fill" d="M 1.45495 2.93259C 2.2585 2.93259 2.90991 2.2761 2.90991 1.46629C 2.90991 0.656482 2.2585 0 1.45495 0C 0.651405 0 0 0.656482 0 1.46629C 0 2.2761 0.651405 2.93259 1.45495 2.93259Z"/>
<path id="path2_fill" d="M 0.84064 3.6507C 0.614313 3.6507 0.452653 3.6507 0.452653 3.6507C 0.193994 3.61812 0 3.39003 0 3.12935C 0 2.86868 0.258658 2.67317 0.517317 2.67317C 0.581981 2.67317 4.2032 2.93385 5.88448 0.22935C 6.01381 0.00125985 6.33713 -0.0639087 6.56346 0.0664284C 6.78979 0.196766 6.85445 0.522609 6.72512 0.750699C 5.07617 3.39003 1.97227 3.6507 0.84064 3.6507Z"/>
<path id="path3_fill" d="M 0.48599 2.7732C 0.356661 2.7732 0.259664 2.74062 0.162667 2.64287C -0.0313266 2.44736 -0.0636584 2.1541 0.130335 1.9586C 0.195 1.89343 1.68229 0.264215 4.72152 0.00354025C 4.98018 -0.029044 5.23884 0.166462 5.23884 0.45972C 5.27117 0.720394 5.07718 0.981069 4.78619 0.981069C 2.10261 1.20916 0.841646 2.61028 0.809313 2.61028C 0.744649 2.70804 0.61532 2.7732 0.48599 2.7732Z"/>
<path id="path4_fill" d="M 0.489026 5.13493C 0.392029 5.13493 0.295032 5.10234 0.198036 5.03717C -0.0282906 4.87425 -0.0606233 4.58099 0.101038 4.3529C 0.165703 4.25515 2.07331 1.71358 5.53287 0.0517776C 5.75919 -0.0785595 6.05018 0.0517776 6.17951 0.279868C 6.30884 0.507958 6.17951 0.801216 5.95319 0.931553C 2.71996 2.4956 0.909346 4.90684 0.877014 4.93942C 0.780017 5.06976 0.650688 5.13493 0.489026 5.13493Z"/>
<path id="path5_fill" d="M 1.81186 6.48553C 1.74719 6.48553 1.6502 6.45295 1.58553 6.42036C 1.35921 6.29003 1.26221 5.99677 1.39154 5.76868C 3.04049 2.70576 0.324573 0.978789 0.227577 0.913621C 0.00125036 0.783284 -0.0634143 0.45744 0.065915 0.22935C 0.195244 0.00125985 0.518567 -0.0639087 0.744894 0.0664284C 0.777226 0.0990127 4.36611 2.34733 2.26451 6.22486C 2.16751 6.38778 1.97352 6.48553 1.81186 6.48553Z"/>
<path id="path6_fill" d="M 0.58507 9.73141C 0.488073 9.73141 0.455741 9.73141 0.455741 9.73141C 0.197083 9.73141 -0.0292434 9.50332 0.00308893 9.21006C 0.00308893 8.94938 0.229415 8.72129 0.520406 8.75388C 0.7144 8.75388 5.07926 8.9168 6.46955 5.33253C 6.95454 3.14938 8.92681 -0.728151 12.9037 0.119041C 13.324 0.151625 17.3979 0.607805 21.1808 2.92129C 21.4071 3.05163 21.4717 3.37747 21.3424 3.60556C 21.2131 3.83365 20.8898 3.89882 20.6634 3.76848C 16.9776 1.48758 12.8067 1.06399 12.7744 1.06399C 12.742 1.06399 12.742 1.06399 12.7097 1.06399C 8.63582 0.18421 7.43952 5.36511 7.40719 5.56062C 7.40719 5.5932 7.40719 5.5932 7.37486 5.62579C 5.88757 9.5359 1.42571 9.73141 0.58507 9.73141Z"/>
<path id="path7_fill" d="M 36.9599 24.0839C 36.7982 24.0839 36.6042 23.9861 36.5396 23.8232C 33.4357 17.9906 29.3941 14.3412 26.8722 12.4513C 29.1031 15.3187 29.6528 16.4266 29.1355 17.1434C 28.6181 17.8928 27.2925 17.6322 23.348 16.1007C 16.2349 13.331 0.844682 1.37261 0.198036 0.88385C -0.0282905 0.720928 -0.0606226 0.427668 0.101039 0.199578C 0.262701 -0.0285122 0.553691 -0.061095 0.780017 0.101826C 0.941679 0.232164 16.7198 12.4839 23.7036 15.1884C 26.9692 16.4591 28.0362 16.6546 28.3595 16.5569C 28.3271 15.7749 25.6759 12.4839 24.2533 10.7243C 24.1239 10.5614 24.1239 10.3007 24.2533 10.1052C 24.3826 9.9097 24.6413 9.87711 24.8353 9.97486C 25.1262 10.1378 32.3364 13.885 37.4125 23.3996C 37.5419 23.6277 37.4449 23.9209 37.2185 24.0513C 37.0892 24.0513 37.0245 24.0839 36.9599 24.0839Z"/>
<path id="path8_fill" d="M 34.6444 24.2351C 34.5474 24.2351 34.4827 24.2025 34.3857 24.1699C 20.0948 15.5025 11.0741 5.01037 8.45521 1.75194C 8.32588 3.25082 7.90556 5.53172 6.77393 6.31374C 5.86863 6.93284 4.83399 6.50924 4.02569 5.85756C 4.05802 6.54183 3.92869 7.32385 3.41137 7.8452C 2.76473 8.49689 1.76242 8.56206 0.339802 8.10588C 0.0811438 8.00813 -0.0481854 7.74745 0.0164792 7.48677C 0.0811439 7.2261 0.372135 7.09576 0.630794 7.16093C 1.3421 7.38902 2.27974 7.58453 2.70006 7.16093C 3.28204 6.57441 2.95872 4.97779 2.76473 4.45644C 2.70006 4.22835 2.79706 3.96767 3.02338 3.86992C 3.24971 3.77217 3.50837 3.83734 3.6377 4.03284C 3.6377 4.06543 5.18965 6.21599 6.19195 5.53172C 7.09725 4.91261 7.48524 2.11037 7.51757 0.481151C 7.51757 0.285645 7.6469 0.0901414 7.8409 0.0249728C 8.03489 -0.0401958 8.26122 0.0249728 8.39055 0.187894C 8.48755 0.318231 17.9286 13.0913 34.8384 23.3553C 35.0647 23.4857 35.1294 23.7789 35 24.0396C 34.9677 24.1373 34.806 24.2351 34.6444 24.2351Z"/>
<path id="path9_fill" d="M 15.2619 25.6774C 14.9062 25.6774 14.5505 25.4819 14.3566 25.3516C 11.479 23.7224 3.36357 18.8999 3.2989 18.8347C 3.07258 18.7044 3.00791 18.4111 3.13724 18.1505C 3.26657 17.9224 3.55756 17.8572 3.81622 17.9875C 3.88088 18.0201 11.8023 22.7774 14.7769 24.4392C 14.2596 23.4617 12.9339 21.5718 11.8993 20.1381C 10.994 18.8347 10.024 17.5314 9.31271 16.3909C 6.82312 12.5134 5.43283 10.1347 5.43283 10.1021C 5.33584 9.93922 5.33584 9.71113 5.46517 9.54821C 5.5945 9.38529 5.78849 9.32012 5.98248 9.38529C 6.53213 9.54821 7.11411 9.61338 7.46977 9.61338C 6.66146 8.37518 3.26657 4.33472 0.130336 0.815621C -0.0636579 0.620115 -0.0313261 0.29427 0.162668 0.131349C 0.356662 -0.064157 0.679984 -0.0315707 0.841646 0.163935C 0.873978 0.196519 2.81392 2.37967 4.72152 4.62798C 8.73073 9.38529 8.66606 9.64596 8.56907 9.97181C 8.4074 10.4932 7.82543 10.6887 6.82312 10.5583C 7.43744 11.601 8.56907 13.4257 10.121 15.8696C 10.8323 16.9774 11.77 18.2808 12.6753 19.5842C 15.6822 23.8201 16.3288 24.8628 15.8115 25.4819C 15.6175 25.6123 15.4235 25.6774 15.2619 25.6774Z"/>
<path id="path10_fill" d="M 21.4934 44.4699C 21.2994 44.4699 21.1377 44.3721 21.073 44.2092L 0.0570357 0.709166C -0.0722935 0.481076 0.0247024 0.187817 0.283361 0.0574802C 0.509687 -0.0728569 0.800678 0.0248949 0.930007 0.285569L 21.946 43.7856C 22.0753 44.0137 21.9783 44.3069 21.7197 44.4373C 21.655 44.4699 21.5904 44.4699 21.4934 44.4699Z"/>
<path id="path11_fill" d="M 16.9677 32.7078C 16.8061 32.7078 16.6121 32.6101 16.5474 32.4472L 0.0579257 0.710066C -0.0714036 0.481976 0.0255953 0.188717 0.251922 0.0583801C 0.478248 -0.0719571 0.769239 0.0257928 0.898568 0.253883L 17.388 31.991C 17.5174 32.2191 17.4204 32.5123 17.1941 32.6427C 17.1294 32.7078 17.0324 32.7078 16.9677 32.7078Z"/>
<path id="path12_fill" d="M 22.1619 47.7829C 22.0649 47.7829 21.9356 47.7504 21.8709 47.6852C 16.9241 43.6121 15.1781 39.4739 9.97261 27.2548C 9.51996 26.2121 9.0673 25.1043 8.54999 23.9312C 2.34218 9.39865 0.0465912 0.698642 0.0142589 0.600889C -0.0504057 0.340215 0.111258 0.0795396 0.369916 0.014371C 0.628575 -0.0507975 0.887229 0.112121 0.951894 0.372795C 0.984226 0.470548 3.27982 9.10539 9.42296 23.5402C 9.90795 24.7133 10.3929 25.8211 10.8456 26.8638C 15.9541 38.92 17.7 42.993 22.4529 46.9357C 22.6469 47.0987 22.6792 47.4245 22.5175 47.62C 22.4529 47.7178 22.3236 47.7829 22.1619 47.7829Z"/>
<path id="path13_fill" d="M 14.3297 10.3358C 14.2651 10.3358 14.2004 10.3358 14.1357 10.3032C 8.15425 7.79421 0.491496 1.14701 0.168173 0.853753C -0.0258207 0.690831 -0.0581532 0.364989 0.103508 0.169483C 0.26517 -0.0260226 0.588493 -0.0586059 0.782486 0.104316C 0.847151 0.169484 8.67157 6.94702 14.4914 9.39084C 14.75 9.48859 14.847 9.78185 14.75 10.0425C 14.7177 10.2054 14.5237 10.3358 14.3297 10.3358Z"/>
<path id="path14_fill" d="M 7.39736 5.30445C 7.30036 5.30445 7.20337 5.27186 7.10637 5.2067C 4.26113 3.08872 0.316586 0.938154 0.251921 0.90557C 0.0255948 0.775233 -0.0714016 0.481974 0.0579277 0.253884C 0.187257 0.0257943 0.478248 -0.0719581 0.704574 0.0583791C 0.736906 0.0909634 4.77844 2.27411 7.68835 4.42467C 7.91468 4.58759 7.94701 4.88085 7.78535 5.10894C 7.68835 5.23928 7.55902 5.30445 7.39736 5.30445Z"/>
<path id="path15_fill" d="M 3.08583 6.62898C 2.92417 6.62898 2.76251 6.53123 2.66551 6.40089C 0.499244 2.68628 0.0465912 0.698641 0.0142589 0.600888C -0.0504057 0.340213 0.111255 0.0795381 0.369914 0.0143696C 0.628572 -0.050799 0.887232 0.112122 0.951897 0.372796C 0.951897 0.405381 1.40455 2.32785 3.47382 5.87954C 3.60315 6.10763 3.53848 6.40089 3.31216 6.56381C 3.24749 6.62898 3.18283 6.62898 3.08583 6.62898Z"/>
<path id="path16_fill" d="M 0.485343 5.97729C 0.226684 5.97729 0.000358253 5.74921 0.000358253 5.48853C 0.000358253 5.35819 -0.0319746 2.55595 0.517675 0.372798C 0.582339 0.112124 0.840999 -0.0507995 1.09966 0.0143691C 1.35832 0.0795376 1.51998 0.340213 1.45531 0.600887C 0.937995 2.6537 0.970328 5.45595 0.970328 5.45595C 0.970328 5.74921 0.776334 5.97729 0.485343 5.97729Z"/>
<path id="path17_fill" d="M 5.02577 9.78966C 4.79944 9.78966 4.57312 9.62673 4.54078 9.36606C 4.54078 9.33348 3.99113 5.74921 3.60315 3.59864C 3.24749 1.74134 0.402247 0.959313 0.369914 0.959313C 0.111256 0.894145 -0.0504052 0.63347 0.0142594 0.372795C 0.078924 0.112121 0.337581 -0.0507975 0.59624 0.014371C 0.725569 0.0469553 4.0558 0.926729 4.54078 3.40314C 4.9611 5.58628 5.47842 9.17056 5.47842 9.20314C 5.51075 9.46381 5.34909 9.72449 5.0581 9.75707C 5.0581 9.78966 5.02577 9.78966 5.02577 9.78966Z"/>
<path id="path18_fill" d="M 19.5492 10.5454C 19.5169 10.5454 19.4845 10.5454 19.4199 10.5454C 7.19826 7.51503 0.214477 0.90042 0.149812 0.835251C -0.044182 0.639745 -0.0441815 0.346487 0.11748 0.150981C 0.311474 -0.0445243 0.602464 -0.0445263 0.796458 0.118395C 0.861123 0.183564 7.65091 6.60267 19.6139 9.56784C 19.8725 9.63301 20.0342 9.89368 19.9695 10.1544C 19.9695 10.3824 19.7755 10.5454 19.5492 10.5454Z"/>
<path id="path19_fill" d="M 5.08268 4.76387C 4.98569 4.76387 4.85636 4.73128 4.79169 4.66612C 4.75936 4.63353 1.78479 2.22229 0.168173 0.853755C -0.0258209 0.690833 -0.0581535 0.364988 0.103508 0.169483C 0.26517 -0.0260231 0.588494 -0.0586064 0.782487 0.104315C 2.36677 1.47286 5.34134 3.88409 5.37368 3.91668C 5.56767 4.0796 5.6 4.40544 5.43834 4.60095C 5.37368 4.6987 5.24435 4.76387 5.08268 4.76387Z"/>
<path id="path20_fill" d="M 3.1937 4.32646C 3.06437 4.32646 2.96738 4.29387 2.87038 4.19612C 1.51242 2.95792 0.122134 0.839938 0.0898015 0.77477C -0.0718601 0.54668 -0.00719496 0.253424 0.219131 0.0905026C 0.445457 -0.0724189 0.736448 -0.00725228 0.898109 0.220838C 0.898109 0.253422 2.2884 2.30623 3.54936 3.47927C 3.74335 3.67477 3.77568 3.96803 3.58169 4.16354C 3.48469 4.26129 3.32303 4.32646 3.1937 4.32646Z"/>
<path id="path21_fill" d="M 4.62756 7.17262C 4.4659 7.17262 4.30424 7.07486 4.20724 6.94453C 4.17491 6.91194 2.07331 3.42542 0.101038 0.786094C -0.0606231 0.558004 -0.028291 0.264748 0.198035 0.101827C 0.424361 -0.0610946 0.715353 -0.0285093 0.877014 0.199581C 2.88162 2.87149 5.01555 6.39059 5.01555 6.42318C 5.14488 6.65127 5.08021 6.94453 4.85389 7.10745C 4.78922 7.14003 4.72456 7.17262 4.62756 7.17262Z"/>
<path id="path22_fill" d="M 6.08252 6.5861C 5.98552 6.5861 5.92085 6.55352 5.82386 6.52093C 3.43127 5.11981 0.230369 0.949017 0.101039 0.786096C -0.0606221 0.558006 -0.0282913 0.264745 0.198035 0.101824C 0.424361 -0.0610975 0.715351 -0.0285122 0.877013 0.199578C 0.909345 0.232162 4.07791 4.37037 6.30884 5.70633C 6.53517 5.83666 6.63217 6.12992 6.4705 6.39059C 6.40584 6.48835 6.24418 6.5861 6.08252 6.5861Z"/>
</defs>
</svg>
