<svg width="457" height="564" viewBox="0 0 457 564" version="1.1" xmlns="http://www.w3.org/2000/svg" xmlns:xlink="http://www.w3.org/1999/xlink">
<title>Group</title>
<desc>Created using Figma</desc>
<g id="Canvas" transform="translate(-17531 637)">
<g id="Group">
<g id="Vector">
<use xlink:href="#path0_fill" transform="translate(17531 -454.439)" fill="currentColor"/>
</g>
<g id="Vector">
<use xlink:href="#path1_fill" transform="translate(17620.4 -637)" fill="currentColor"/>
</g>
</g>
</g>
<defs>
<path id="path0_fill" d="M 456.583 16.0059C 456.583 15.3823 456.583 14.7587 456.375 14.1351C 456.375 13.7193 456.375 13.0957 456.166 12.68C 455.958 12.2643 455.958 11.6406 455.749 11.2249C 455.541 10.8092 455.332 10.1856 455.124 9.76983C 454.915 9.35409 454.707 8.93836 454.498 8.52262C 454.29 7.89902 453.873 7.48327 453.664 7.06753C 453.664 7.06753 453.456 6.85967 453.456 6.6518C 453.247 6.44393 453.039 6.23606 452.83 5.82032C 452.413 5.40459 451.996 4.98885 451.579 4.57311C 451.162 4.15738 450.745 3.94951 450.328 3.53377C 449.911 3.11803 449.495 2.91016 449.078 2.70229C 448.661 2.49442 448.244 2.07868 447.618 1.87081C 447.201 1.66294 446.784 1.45508 446.159 1.24722C 445.742 1.03935 445.116 0.831469 444.699 0.831469C 444.282 0.6236 443.657 0.623606 443.24 0.415738C 442.615 0.415738 441.989 0.207872 441.364 0.207872C 440.947 0.207872 440.738 0.207872 440.321 0.207872C 440.113 0.207872 440.113 0.207872 439.904 0.207872C 439.279 0.207872 438.653 0.207869 438.028 0.415738C 437.611 0.415738 437.194 0.415734 436.568 0.623603C 435.943 0.831472 435.526 0.831481 435.109 1.03935C 434.692 1.24722 434.067 1.45508 433.65 1.66295C 433.233 1.87082 432.816 2.07869 432.399 2.28656C 431.773 2.49443 431.356 2.91017 430.939 3.11804C 430.939 3.11804 430.731 3.3259 430.522 3.3259L 228.292 153.823L 26.0607 3.3259C 26.0607 3.3259 25.8522 3.11804 25.6437 3.11804C 25.2267 2.7023 24.6013 2.49443 23.9758 2.07869C 23.5589 1.87083 23.1419 1.66295 22.7249 1.45508C 22.3079 1.24721 21.6825 1.03934 21.2655 0.831469C 20.8485 0.831469 20.4316 0.623606 19.8061 0.415738C 19.3891 0.415738 18.7637 0.207872 18.3467 0.207872C 17.7213 0.207872 17.0958 6.34365e-06 16.4703 6.34365e-06C 16.2619 6.34365e-06 16.2619 6.34365e-06 16.0534 6.34365e-06C 15.6364 6.34365e-06 15.4279 3.17492e-06 15.0109 0.207872C 14.3855 0.207872 13.76 0.207869 13.3431 0.415738C 12.7176 0.415738 12.3006 0.6236 11.8837 0.831469C 11.4667 1.03934 10.8412 1.03935 10.4243 1.24722C 10.0073 1.45508 9.38184 1.66294 8.96487 1.87081C 8.5479 2.07868 8.13093 2.28655 7.50547 2.70229C 7.0885 2.91016 6.67153 3.3259 6.25456 3.74163C 5.83759 4.15737 5.42062 4.36524 5.00365 4.78098C 4.58668 5.19672 4.16971 5.61245 3.75274 6.02819C 3.54425 6.23606 3.33577 6.44393 3.12728 6.85967C 3.12728 6.85967 2.9188 7.06754 2.9188 7.27541C 2.50182 7.69115 2.29334 8.31475 2.08485 8.73049C 1.87637 9.14623 1.66788 9.56196 1.4594 9.9777C 1.25091 10.3934 1.04243 11.0171 0.833942 11.4328C 0.625456 11.8485 0.416971 12.4721 0.416971 12.8879C 0.416971 13.3036 0.208485 13.9272 0.208485 14.3429C 0.208485 14.9665 0 15.5902 0 16.2138C 0 16.4216 0 16.4216 0 16.6295L 0 325.73C 0 330.719 2.29334 335.5 6.46305 338.618L 58.3759 378.113C 61.2947 380.4 64.839 381.439 68.1747 381.439C 73.1784 381.439 77.9735 379.153 81.1008 374.995C 86.5214 367.928 85.2705 357.742 77.9735 352.13L 32.5237 317.624L 32.5237 197.891L 218.493 338.826C 219.327 339.45 220.161 339.865 220.995 340.489C 221.203 340.697 221.411 340.697 221.62 340.697C 222.454 341.113 223.288 341.321 224.122 341.528C 224.33 341.528 224.747 341.736 224.956 341.736C 225.998 341.944 227.041 342.152 228.292 342.152C 229.334 342.152 230.376 341.944 231.627 341.736C 231.836 341.736 232.253 341.528 232.461 341.528C 233.295 341.321 234.129 340.905 234.963 340.697C 235.172 340.697 235.38 340.489 235.589 340.489C 236.422 340.073 237.256 339.45 238.09 338.826L 424.059 198.307L 424.059 317.416L 378.818 351.506C 371.729 356.911 370.27 367.096 375.691 374.372C 378.818 378.529 383.822 380.816 388.825 380.816C 392.161 380.816 395.705 379.776 398.624 377.49L 450.537 338.618C 454.707 335.5 457 330.719 457 325.73L 457 16.2138C 456.792 16.2138 456.583 16.0059 456.583 16.0059ZM 32.5237 48.6413L 200.98 173.986L 127.385 228.864L 32.5237 156.941L 32.5237 48.6413ZM 228.292 305.359L 154.279 249.443L 228.083 194.357L 302.095 249.443L 228.292 305.359ZM 329.407 229.071L 255.603 174.194L 424.059 48.8492L 424.059 157.565L 329.407 229.071Z"/>
<path id="path1_fill" d="M 128.635 225.382C 131.554 227.668 135.307 228.915 138.851 228.915C 142.396 228.915 146.148 227.668 149.067 225.382L 271.865 127.268C 275.618 124.15 277.911 119.577 277.911 114.588C 277.911 109.599 275.618 105.026 271.865 101.908L 149.067 3.58574C 143.021 -1.19525 134.682 -1.19525 128.635 3.58574L 6.04608 101.908C 2.29334 105.026 3.18124e-06 109.599 3.18124e-06 114.588C 3.18124e-06 119.577 2.29334 124.15 6.04608 127.268L 128.635 225.382ZM 138.851 37.0526L 235.589 114.38L 138.851 191.707L 42.3225 114.588L 138.851 37.0526Z"/>
</defs>
</svg>
