<svg width="95" height="38" viewBox="0 0 95 38" version="1.1" xmlns="http://www.w3.org/2000/svg" xmlns:xlink="http://www.w3.org/1999/xlink">
<title>Group</title>
<desc>Created using Figma</desc>
<g id="Canvas" transform="translate(-17375 687)">
<g id="Group">
<g id="Group">
<g id="Vector">
<use xlink:href="#path0_fill" transform="translate(17375 -674.7)" fill="currentColor"/>
</g>
<g id="Vector">
<use xlink:href="#path1_fill" transform="translate(17381 -687)" fill="currentColor"/>
</g>
</g>
<g id="Group">
<g id="Vector">
<use xlink:href="#path2_fill" transform="translate(17415.9 -669.521)" fill="currentColor"/>
</g>
<g id="Vector">
<use xlink:href="#path3_fill" transform="translate(17436 -669.508)" fill="currentColor"/>
</g>
<g id="Vector">
<use xlink:href="#path4_fill" transform="translate(17447.1 -669.536)" fill="currentColor"/>
</g>
<g id="Vector">
<use xlink:href="#path5_fill" transform="translate(17457.4 -669.508)" fill="currentColor"/>
</g>
<g id="Vector">
<use xlink:href="#path6_fill" transform="translate(17462.9 -669.521)" fill="currentColor"/>
</g>
</g>
<g id="Group">
<g id="Vector">
<use xlink:href="#path7_fill" transform="translate(17423.9 -667.477)" fill="currentColor"/>
</g>
<g id="Vector">
<use xlink:href="#path8_fill" transform="translate(17426 -669.7)" fill="currentColor"/>
</g>
</g>
</g>
</g>
<defs>
<path id="path0_fill" d="M 30.5639 1.07841C 30.5639 1.0364 30.5639 0.994379 30.55 0.952363C 30.55 0.924352 30.55 0.882337 30.536 0.854326C 30.5221 0.826315 30.5221 0.784299 30.5081 0.756288C 30.4941 0.728277 30.4802 0.686262 30.4662 0.658251C 30.4523 0.63024 30.4383 0.60223 30.4244 0.574219C 30.4104 0.532203 30.3825 0.504192 30.3685 0.476181C 30.3685 0.476181 30.3546 0.462176 30.3546 0.448171C 30.3406 0.434166 30.3267 0.42016 30.3127 0.392149C 30.2848 0.364139 30.2569 0.336128 30.229 0.308118C 30.2011 0.280107 30.1732 0.266102 30.1452 0.238091C 30.1173 0.21008 30.0894 0.196075 30.0615 0.182069C 30.0336 0.168064 30.0057 0.140053 29.9638 0.126048C 29.9359 0.112042 29.908 0.0980376 29.8661 0.0840323C 29.8382 0.0700269 29.7963 0.0560209 29.7684 0.0560209C 29.7405 0.0420156 29.6986 0.042016 29.6707 0.0280107C 29.6289 0.0280107 29.587 0.0140056 29.5451 0.0140056C 29.5172 0.0140056 29.5033 0.0140056 29.4753 0.0140056C 29.4614 0.0140056 29.4614 0.0140056 29.4474 0.0140056C 29.4056 0.0140056 29.3637 0.0140053 29.3218 0.0280107C 29.2939 0.0280107 29.266 0.0280105 29.2241 0.0420158C 29.1823 0.0560212 29.1544 0.0560218 29.1264 0.0700271C 29.0985 0.0840325 29.0567 0.0980372 29.0287 0.112043C 29.0008 0.126048 28.9729 0.140054 28.945 0.154059C 28.9031 0.168064 28.8752 0.196075 28.8473 0.210081C 28.8473 0.210081 28.8334 0.224086 28.8194 0.224086L 15.282 10.364L 1.74452 0.224086C 1.74452 0.224086 1.73056 0.210081 1.7166 0.210081C 1.68869 0.18207 1.64682 0.168065 1.60495 0.140054C 1.57704 0.126049 1.54913 0.112043 1.52122 0.0980374C 1.49331 0.0840321 1.45144 0.0700263 1.42353 0.0560209C 1.39561 0.0420156 1.35374 0.0280107 1.32583 0.0280107C 1.29792 0.0280107 1.25605 0.0140056 1.22814 0.0140056C 1.18627 0.0140056 1.1444 4.27409e-07 1.10253 4.27409e-07C 1.08858 4.27409e-07 1.08858 4.27409e-07 1.07462 4.27409e-07C 1.04671 4.27409e-07 1.03275 2.13913e-07 1.00484 0.0140056C 0.962973 0.0140056 0.921105 0.0140053 0.893192 0.0280107C 0.851324 0.0280107 0.823412 0.0420156 0.7955 0.0560209C 0.767588 0.0700263 0.725718 0.0700269 0.697806 0.0840323C 0.669894 0.0980376 0.628026 0.112042 0.600114 0.126048C 0.572202 0.140053 0.544289 0.154059 0.50242 0.182069C 0.474508 0.196075 0.446596 0.224085 0.418684 0.252096C 0.390771 0.280107 0.362859 0.294112 0.334947 0.322123C 0.307035 0.350133 0.279123 0.378144 0.251211 0.406155C 0.237254 0.42016 0.223298 0.434165 0.209342 0.462176C 0.209342 0.462176 0.195386 0.476182 0.195386 0.490187C 0.167474 0.518198 0.153517 0.560214 0.139561 0.588224C 0.125605 0.616235 0.111649 0.644246 0.0976933 0.672256C 0.0837372 0.700267 0.0697806 0.742284 0.0558245 0.770294C 0.0418684 0.798305 0.0279127 0.840321 0.0279127 0.868331C 0.0279127 0.896342 0.0139557 0.938358 0.0139557 0.966368C 0.0139557 1.00838 -2.12954e-07 1.0504 -2.12954e-07 1.09242C -2.12954e-07 1.10642 -2.12954e-07 1.10642 -2.12954e-07 1.12043L -2.12954e-07 21.9464C -2.12954e-07 22.2825 0.153517 22.6046 0.43264 22.8147L 3.90772 25.4757C 4.1031 25.6298 4.34036 25.6998 4.56365 25.6998C 4.8986 25.6998 5.21959 25.5457 5.42893 25.2656C 5.79179 24.7895 5.70806 24.1032 5.21959 23.7251L 2.17716 21.4002L 2.17716 13.3331L 14.626 22.8287C 14.6818 22.8707 14.7377 22.8987 14.7935 22.9408C 14.8075 22.9548 14.8214 22.9548 14.8354 22.9548C 14.8912 22.9828 14.947 22.9968 15.0028 23.0108C 15.0168 23.0108 15.0447 23.0248 15.0587 23.0248C 15.1284 23.0388 15.1982 23.0528 15.282 23.0528C 15.3517 23.0528 15.4215 23.0388 15.5053 23.0248C 15.5192 23.0248 15.5471 23.0108 15.5611 23.0108C 15.6169 22.9968 15.6727 22.9688 15.7286 22.9548C 15.7425 22.9548 15.7565 22.9408 15.7704 22.9408C 15.8263 22.9127 15.8821 22.8707 15.9379 22.8287L 28.3868 13.3611L 28.3868 21.3862L 25.3583 23.683C 24.8838 24.0472 24.7861 24.7334 25.1489 25.2236C 25.3583 25.5037 25.6932 25.6578 26.0282 25.6578C 26.2515 25.6578 26.4887 25.5878 26.6841 25.4337L 30.1592 22.8147C 30.4383 22.6046 30.5918 22.2825 30.5918 21.9464L 30.5918 1.09242C 30.5779 1.09242 30.5639 1.07841 30.5639 1.07841ZM 2.17716 3.27725L 13.4537 11.7225L 8.52719 15.4199L 2.17716 10.574L 2.17716 3.27725ZM 15.282 20.5738L 10.3275 16.8064L 15.268 13.095L 20.2224 16.8064L 15.282 20.5738ZM 22.0507 15.4339L 17.1102 11.7365L 28.3868 3.29126L 28.3868 10.6161L 22.0507 15.4339Z"/>
<path id="path1_fill" d="M 8.61093 15.1853C 8.80632 15.3394 9.05753 15.4234 9.29478 15.4234C 9.53204 15.4234 9.78325 15.3394 9.97863 15.1853L 18.1988 8.57477C 18.45 8.36469 18.6035 8.05657 18.6035 7.72044C 18.6035 7.38432 18.45 7.0762 18.1988 6.86612L 9.97863 0.241592C 9.57391 -0.0805307 9.01566 -0.0805307 8.61093 0.241592L 0.404728 6.86612C 0.153518 7.0762 0 7.38432 0 7.72044C 0 8.05657 0.153518 8.36469 0.404728 8.57477L 8.61093 15.1853ZM 9.29478 2.49645L 15.7704 7.72044L 9.29478 12.9304L 2.81914 7.72044L 9.29478 2.49645Z"/>
<path id="path2_fill" d="M 6.29421 7.31079L 2.37254 7.28278L 2.37254 0.714273C 2.37254 0.518199 2.30276 0.350134 2.1632 0.21008C 2.02364 0.0700267 1.85617 0 1.66078 0L 0.711763 0C 0.516377 0 0.348903 0.0700267 0.209342 0.21008C 0.0697807 0.350134 0 0.518199 0 0.714273L 0 8.78135C 0 8.97743 0.0697807 9.14549 0.209342 9.28554C 0.348903 9.42559 0.516377 9.49562 0.711763 9.49562L 6.29421 9.49562C 6.4896 9.49562 6.65707 9.42559 6.79664 9.28554C 6.9362 9.14549 7.00598 8.97743 7.00598 8.78135L 7.00598 8.03907C 7.00598 7.84299 6.9362 7.66092 6.79664 7.53487C 6.65707 7.38081 6.4896 7.31079 6.29421 7.31079Z"/>
<path id="path3_fill" d="M 7.52236 8.54818e-07L 6.58729 8.54818e-07C 6.39191 8.54818e-07 6.22443 0.0700276 6.08487 0.210081C 5.94531 0.350134 5.87553 0.518199 5.87553 0.714274L 5.87553 5.57413C 5.87553 5.95227 5.81971 6.27439 5.6941 6.51249C 5.5685 6.75058 5.42893 6.94665 5.23355 7.08671C 5.06607 7.22676 4.8986 7.3248 4.68926 7.36681C 4.35431 7.45084 4.14497 7.47886 3.86585 7.43684C 3.76815 7.42283 3.65651 7.40883 3.54486 7.36681C 3.36343 7.3248 3.182 7.22676 3.00057 7.08671C 2.83309 6.94665 2.67958 6.75058 2.55397 6.51249C 2.42837 6.27439 2.37254 5.95227 2.37254 5.57413L 2.37254 0.714274C 2.37254 0.518199 2.30276 0.350134 2.1632 0.210081C 2.02364 0.0700276 1.85617 8.54818e-07 1.66078 8.54818e-07L 0.711763 8.54818e-07C 0.530333 8.54818e-07 0.348903 0.0700276 0.209342 0.210081C 0.0697802 0.350134 -4.25907e-07 0.518199 -4.25907e-07 0.714274L -4.25907e-07 5.58813C -4.25907e-07 6.20437 0.0976933 6.75057 0.293079 7.24076C 0.488465 7.74495 0.767586 8.17912 1.1444 8.52925C 1.49331 8.87939 1.92595 9.14549 2.44232 9.35557C 2.93079 9.55164 3.48903 9.64968 4.11706 9.64968C 4.74508 9.64968 5.30333 9.55164 5.80575 9.35557C 6.32213 9.15949 6.75477 8.87939 7.10367 8.52925C 7.46653 8.16512 7.74565 7.73095 7.94104 7.24076C 8.03873 6.98867 8.10851 6.72257 8.15038 6.45647C 8.19225 6.17636 8.22016 5.89625 8.22016 5.60214L 8.22016 0.728276C 8.22016 0.532201 8.15038 0.350134 8.01082 0.210081C 7.88521 0.0700276 7.71774 8.54818e-07 7.52236 8.54818e-07Z"/>
<path id="path4_fill" d="M 6.85246 7.42283C 6.58729 7.0727 6.30817 6.69455 6.00114 6.34442C 6.44773 6.09233 6.82455 5.75619 7.11763 5.32203C 7.48049 4.78983 7.67587 4.13158 7.67587 3.37529C 7.67587 2.89911 7.59213 2.43693 7.43862 2.01677C 7.35488 1.80669 7.25719 1.61062 7.14554 1.44255C 7.03389 1.26048 6.89433 1.09242 6.74081 0.938359C 6.44773 0.658252 6.09883 0.420161 5.68015 0.238092C 5.26146 0.0840329 4.81487 -8.54818e-07 4.3264 -8.54818e-07L 0.711764 -8.54818e-07C 0.516378 -8.54818e-07 0.348903 0.0700259 0.209342 0.210079C 0.0697807 0.350133 0 0.518198 0 0.714272L 0 7.84299C 0 8.03907 0.0697807 8.22114 0.209342 8.36119C 0.348903 8.50124 0.516378 8.57127 0.711764 8.57127L 1.66078 8.57127C 1.85616 8.57127 2.0376 8.50124 2.1632 8.36119C 2.28881 8.22114 2.35859 8.05307 2.35859 7.857L 2.3865 6.70856L 3.3076 6.70856C 3.36343 6.70856 3.41925 6.72256 3.47508 6.75058C 3.54486 6.77859 3.58672 6.8206 3.61464 6.86262L 5.21959 9.08947C 5.31729 9.21551 5.44289 9.31355 5.59641 9.38358C 5.74993 9.46761 5.9174 9.50963 6.07092 9.50963L 7.2851 9.50963C 7.53631 9.50963 7.7317 9.36957 7.81543 9.13148C 7.8573 8.99143 7.87126 8.79535 7.71774 8.55726C 7.39675 8.16511 7.11763 7.78697 6.85246 7.42283ZM 5.30333 3.38929C 5.30333 3.59937 5.27542 3.76744 5.21959 3.89349C 5.14981 4.03354 5.06608 4.15958 4.96838 4.25762C 4.88465 4.34165 4.78695 4.41168 4.64739 4.4537C 4.52178 4.49572 4.41014 4.52373 4.29849 4.52373L 2.33067 4.49571L 2.33067 2.19884C 2.34463 2.18483 2.34463 2.18483 2.35859 2.18483L 4.29849 2.18483C 4.52179 2.18483 4.70322 2.22685 4.81487 2.29687C 4.95443 2.38091 5.05212 2.47895 5.09399 2.56298C 5.13586 2.63301 5.16377 2.70303 5.19168 2.77306C 5.21959 2.84309 5.23355 2.91311 5.24751 2.98314C 5.28937 3.1372 5.30333 3.26325 5.30333 3.38929Z"/>
<path id="path5_fill" d="M 1.66078 8.54818e-07L 0.711763 8.54818e-07C 0.516377 8.54818e-07 0.334945 0.0700284 0.195384 0.224087C 0.069779 0.364141 -8.51815e-07 0.532201 -8.51815e-07 0.728276L -8.51815e-07 8.78135C -8.51815e-07 8.97742 0.069779 9.14549 0.195384 9.28554C 0.334945 9.4256 0.50242 9.49562 0.697806 9.49562L 1.64683 9.49562C 1.84221 9.49562 2.00968 9.4256 2.14924 9.28554C 2.2888 9.14549 2.35858 8.97742 2.35858 8.78135L 2.35858 0.728276C 2.35858 0.532201 2.2888 0.36414 2.14924 0.210081C 2.03759 0.0700276 1.85616 8.54818e-07 1.66078 8.54818e-07Z"/>
<path id="path6_fill" d="M 6.43377 2.18483C 6.62916 2.18483 6.81059 2.11481 6.9362 1.97475C 7.07576 1.8347 7.14554 1.66664 7.14554 1.47056L 7.14554 0.728279C 7.14554 0.532205 7.07576 0.350134 6.9362 0.21008C 6.79663 0.0700267 6.62916 0 6.43377 0L 0.711761 0C 0.516375 0 0.348905 0.0700267 0.209344 0.21008C 0.0697823 0.350134 1.70363e-06 0.518198 1.70363e-06 0.714273L 1.70363e-06 8.78135C 1.70363e-06 8.97743 0.0697823 9.15949 0.209344 9.29955C 0.348905 9.4396 0.516375 9.50963 0.711761 9.50963L 6.43377 9.50963C 6.62916 9.50963 6.79663 9.4396 6.9362 9.29955C 7.07576 9.15949 7.14554 8.99143 7.14554 8.79535L 7.14554 8.02506C 7.14554 7.82898 7.07576 7.64692 6.9362 7.52087C 6.79663 7.38082 6.62916 7.31079 6.43377 7.31079L 2.35859 7.28278L 2.3865 5.92426L 5.88949 5.92426C 6.08487 5.92426 6.25235 5.85423 6.39191 5.71418C 6.53147 5.57412 6.60125 5.40606 6.60125 5.20999L 6.60125 4.41168C 6.60125 4.21561 6.53147 4.03354 6.39191 3.90749C 6.25235 3.76744 6.08487 3.69741 5.88949 3.69741L 2.35859 3.6694L 2.3865 2.18483L 6.43377 2.18483Z"/>
<path id="path7_fill" d="M 5.88949 5.12596C 5.87553 5.12596 5.86157 5.13996 5.86157 5.13996C 5.26146 5.42007 4.52179 5.42007 3.92167 5.13996C 3.61464 4.99991 3.34947 4.80383 3.11222 4.55174C 2.88892 4.31365 2.69353 4.01953 2.56793 3.69741C 2.42837 3.37529 2.37254 3.03916 2.37254 2.68902C 2.37254 2.3669 2.44232 2.05879 2.55397 1.75067L 0.809456 8.54818e-07C 0.655938 0.238092 0.516377 0.490188 0.390772 0.770295C 0.139561 1.37252 2.12954e-07 2.01677 2.12954e-07 2.68902C 2.12954e-07 3.36128 0.125605 4.01953 0.390772 4.60776C 0.641982 5.19598 1.00484 5.72819 1.43748 6.16235C 1.88408 6.61052 2.40045 6.96066 2.98661 7.21275C 3.57277 7.46485 4.21475 7.6049 4.88465 7.6049C 5.5685 7.6049 6.21048 7.47885 6.79664 7.21275C 7.0618 7.10071 7.32697 6.94665 7.56422 6.79259L 5.88949 5.12596Z"/>
<path id="path8_fill" d="M 7.27114 3.00765C 7.01993 2.41942 6.65707 1.88722 6.22443 1.43905C 5.77784 0.990878 5.26146 0.640744 4.6753 0.388648C 3.50299 -0.129549 2.05155 -0.129549 0.865281 0.388648C 0.558246 0.528702 0.265166 0.68276 -2.12954e-07 0.878835L 1.68869 2.57348C 1.73056 2.54547 1.75847 2.50345 1.8143 2.48945C 2.10738 2.3494 2.44232 2.27937 2.79123 2.27937C 3.14013 2.27937 3.46112 2.3494 3.76816 2.48945C 4.07519 2.64351 4.35431 2.82558 4.57761 3.07768C 4.80091 3.31577 4.9963 3.60988 5.1219 3.932C 5.26146 4.25412 5.31729 4.59025 5.31729 4.94038C 5.31729 5.29052 5.24751 5.62665 5.1219 5.94877C 5.1219 5.96278 5.10794 5.97678 5.09399 5.99079L 6.82455 7.72745C 7.00598 7.46135 7.17345 7.16724 7.31301 6.85912C 7.56422 6.27089 7.70378 5.62665 7.70378 4.94038C 7.66192 4.25412 7.52235 3.60988 7.27114 3.00765Z"/>
</defs>
</svg>
