<svg width="11" height="86" viewBox="0 0 11 86" version="1.1" xmlns="http://www.w3.org/2000/svg" xmlns:xlink="http://www.w3.org/1999/xlink">
<title>Page 1</title>
<desc>Created using Figma</desc>
<g id="Canvas" transform="translate(-17387 -3165)">
<g id="Group 2">
<g id="Rectangle 2">
<use xlink:href="#scroll0_fill" transform="translate(17391 3219)" fill="currentColor"/>
</g>
<g id="Rectangle 2.2">
<use xlink:href="#scroll1_fill" transform="translate(17391 3210)" fill="currentColor"/>
</g>
<g id="Rectangle 2.1">
<use xlink:href="#scroll2_fill" transform="translate(17391 3233)" fill="currentColor"/>
</g>
<g id="Rectangle 2.3">
<use xlink:href="#scroll3_fill" transform="matrix(0.707107 -0.707107 0.707107 0.707107 17387 3245.41)" fill="currentColor"/>
</g>
<g id="Rectangle 2.4">
<use xlink:href="#scroll3_fill" transform="matrix(0.707107 0.707107 -0.707107 0.707107 17395.5 3244)" fill="currentColor"/>
</g>
</g>
<g id="Scroll">
<use xlink:href="#scroll4_fill" transform="matrix(6.12323e-17 1 -1 6.12323e-17 17407 3165)" fill="currentColor"/>
</g>
</g>
<defs>
<path id="scroll0_fill" d="M 0 1C 0 0.447715 0.447715 0 1 0C 1.55228 0 2 0.447715 2 1L 2 9C 2 9.55229 1.55228 10 1 10C 0.447715 10 0 9.55229 0 9L 0 1Z"/>
<path id="scroll1_fill" d="M 0 1C 0 0.447715 0.447715 0 1 0C 1.55228 0 2 0.447715 2 1L 2 4C 2 4.55228 1.55228 5 1 5C 0.447715 5 0 4.55228 0 4L 0 1Z"/>
<path id="scroll2_fill" d="M 0 1C 0 0.447715 0.447715 0 1 0C 1.55228 0 2 0.447715 2 1L 2 14C 2 14.5523 1.55228 15 1 15C 0.447715 15 0 14.5523 0 14L 0 1Z"/>
<path id="scroll3_fill" d="M 0 1C 0 0.447715 0.447715 0 1 0C 1.55228 0 2 0.447715 2 1L 2 7L 0 7L 0 1Z"/>
<path id="scroll4_fill" d="M 3.768 9.564C 2.028 9.564 0.864 10.416 0.864 11.736C 0.864 14.748 5.592 13.572 5.58 15.78C 5.58 16.584 4.824 17.076 3.612 17.076C 2.664 17.076 1.596 16.644 0.816 15.888L 0.384 16.752C 1.176 17.508 2.376 18.036 3.6 18.036C 5.4 18.036 6.636 17.136 6.636 15.732C 6.648 12.684 1.92 13.812 1.92 11.652C 1.92 10.944 2.628 10.536 3.708 10.536C 4.38 10.536 5.268 10.74 6.024 11.244L 6.432 10.344C 5.736 9.876 4.74 9.564 3.768 9.564ZM 10.9719 11.652C 9.14794 11.652 7.83994 12.96 7.83994 14.844C 7.83994 16.728 9.13594 18.036 10.9719 18.036C 12.0639 18.036 12.9399 17.628 13.5039 16.944L 12.9639 16.368C 12.5199 16.896 11.8359 17.184 11.0079 17.184C 9.69994 17.184 8.76394 16.224 8.76394 14.844C 8.76394 13.464 9.69994 12.516 11.0079 12.516C 11.7759 12.516 12.4119 12.792 12.8919 13.248L 13.4079 12.588C 12.8319 11.988 11.9919 11.64 10.9719 11.652ZM 16.1385 11.676L 15.2025 11.676L 15.2025 18L 16.1385 18L 16.1385 14.64C 16.2465 13.392 17.0745 12.564 18.4065 12.588L 18.4065 11.64C 17.3385 11.652 16.5585 12.156 16.1385 13.08L 16.1385 11.676ZM 22.2353 11.652C 20.3633 11.652 19.0313 12.948 19.0313 14.832C 19.0313 16.728 20.3633 18.036 22.2353 18.036C 24.1073 18.036 25.4393 16.728 25.4393 14.832C 25.4393 12.948 24.1073 11.652 22.2353 11.652ZM 22.2353 12.504C 23.5553 12.504 24.5033 13.464 24.5033 14.844C 24.5033 16.236 23.5553 17.196 22.2353 17.196C 20.9153 17.196 19.9673 16.236 19.9673 14.844C 19.9673 13.464 20.9153 12.504 22.2353 12.504ZM 28.0813 18L 28.0813 9.096L 27.1453 9.096L 27.1453 18L 28.0813 18ZM 31.4212 18L 31.4212 9.096L 30.4852 9.096L 30.4852 18L 31.4212 18Z"/>
</defs>
</svg>
