<?xml version="1.0" standalone="no"?>
<!DOCTYPE svg PUBLIC "-//W3C//DTD SVG 20010904//EN"
 "http://www.w3.org/TR/2001/REC-SVG-20010904/DTD/svg10.dtd">
<svg version="1.0" xmlns="http://www.w3.org/2000/svg"
 width="1128.000000pt" height="1128.000000pt" viewBox="0 0 1128.000000 1128.000000"
 preserveAspectRatio="xMidYMid meet">
<metadata>
Created by potrace 1.11, written by Peter Selinger 2001-2013
</metadata>
<g transform="translate(0.000000,1128.000000) scale(0.100000,-0.100000)"
fill="#000000" stroke="none">
<path d="M5535 11262 c-54 -19 -198 -115 -188 -126 3 -3 1 -6 -5 -6 -9 0 -85
-58 -177 -135 -16 -14 -48 -39 -70 -56 -22 -17 -42 -34 -45 -38 -3 -4 -21 -18
-40 -31 -19 -13 -39 -30 -43 -37 -4 -7 -14 -13 -20 -13 -7 0 -19 -9 -27 -20
-8 -11 -20 -20 -26 -20 -7 0 -14 -4 -16 -9 -1 -5 -88 -78 -193 -161 -226 -181
-292 -234 -370 -298 -11 -9 -49 -39 -85 -67 -36 -27 -74 -58 -85 -67 -11 -9
-83 -67 -160 -129 -77 -61 -142 -115 -143 -120 -2 -5 -10 -9 -17 -9 -7 0 -15
-4 -17 -8 -1 -5 -61 -54 -131 -110 -70 -56 -133 -107 -140 -112 -13 -11 -40
-33 -84 -68 -15 -12 -46 -37 -69 -55 -22 -17 -57 -45 -78 -62 -21 -16 -48 -38
-60 -49 -11 -10 -37 -30 -56 -45 -19 -14 -37 -28 -40 -31 -8 -9 -64 -53 -100
-80 -111 -82 -179 -179 -184 -265 -2 -25 -6 -48 -9 -51 -7 -7 16 -91 41 -144
17 -38 83 -109 143 -155 39 -30 375 -300 379 -304 3 -4 23 -20 45 -36 22 -16
49 -37 60 -46 17 -15 124 -101 175 -142 8 -7 58 -46 110 -87 52 -41 97 -77
100 -80 3 -3 60 -50 127 -103 127 -101 157 -125 177 -142 6 -6 27 -22 46 -35
19 -13 37 -27 40 -30 3 -4 57 -48 120 -98 63 -51 122 -97 130 -104 24 -22 75
-62 105 -83 15 -11 35 -27 44 -35 9 -9 39 -33 66 -55 28 -21 57 -45 65 -52 8
-7 42 -34 75 -60 74 -59 94 -75 109 -88 6 -6 27 -22 46 -35 19 -13 40 -29 45
-36 6 -6 66 -56 135 -110 124 -98 143 -113 182 -146 77 -65 215 -91 313 -59
52 17 150 81 209 137 6 6 34 27 61 48 28 21 52 41 55 45 3 4 21 18 40 31 19
14 42 32 50 40 9 8 31 26 49 40 19 14 42 32 51 40 31 25 52 42 150 120 117 92
125 99 156 128 14 12 28 22 32 22 4 0 25 16 47 35 22 19 45 39 50 43 43 34
212 169 221 177 7 6 25 20 40 32 16 12 58 46 95 75 36 29 81 65 100 80 183
144 265 211 267 219 2 5 8 9 13 9 5 0 18 8 28 18 11 9 26 22 33 27 16 12 108
85 125 100 7 5 18 15 25 20 7 6 27 21 44 35 17 14 45 36 64 50 18 14 38 30 44
35 6 6 45 37 86 70 41 33 80 64 86 70 7 5 24 19 40 30 15 11 32 25 38 30 6 6
54 44 106 85 198 155 234 196 263 295 32 114 1 220 -93 315 -67 67 -116 110
-126 110 -3 0 -11 6 -18 13 -21 20 -69 59 -116 97 -25 19 -46 38 -48 42 -2 4
-10 8 -17 8 -7 0 -15 4 -17 8 -1 4 -61 55 -133 112 -71 57 -132 106 -135 110
-3 3 -21 17 -42 32 -20 15 -42 33 -50 40 -7 7 -38 32 -68 55 -30 23 -65 51
-77 63 -13 11 -23 19 -23 16 0 -3 -13 7 -28 22 -16 15 -43 38 -62 52 -54 40
-95 74 -98 83 -2 4 -8 7 -13 7 -5 0 -17 8 -27 18 -10 9 -33 28 -51 42 -18 14
-38 30 -44 35 -7 6 -34 28 -62 50 -27 22 -52 42 -55 45 -3 3 -21 17 -42 32
-20 15 -42 33 -50 40 -7 7 -34 29 -58 48 -44 34 -63 50 -100 80 -9 8 -32 26
-50 40 -18 14 -69 54 -114 90 -45 35 -85 68 -91 72 -5 5 -22 18 -36 31 -14 12
-40 33 -59 47 -18 14 -40 32 -50 40 -10 8 -32 26 -50 40 -72 54 -165 133 -168
141 -2 5 -9 9 -15 9 -7 0 -28 15 -48 33 -50 44 -75 64 -128 105 -25 19 -48 37
-51 41 -3 4 -27 22 -55 42 -91 64 -207 84 -300 51z m305 -888 c69 -54 131
-103 138 -109 7 -5 18 -15 25 -20 7 -6 62 -50 122 -98 61 -48 117 -93 125
-100 8 -7 35 -28 60 -47 25 -19 47 -38 50 -41 3 -3 28 -23 55 -44 28 -20 52
-40 55 -44 3 -4 34 -29 70 -56 36 -27 72 -57 81 -67 9 -10 19 -18 23 -18 3 0
14 -6 23 -14 10 -8 50 -41 89 -73 39 -32 86 -69 104 -83 18 -14 38 -29 44 -35
10 -9 80 -65 161 -130 17 -13 62 -49 100 -79 122 -98 129 -104 160 -128 17
-12 44 -35 60 -50 17 -15 33 -28 37 -28 4 0 13 -6 20 -13 7 -7 39 -33 70 -59
l57 -46 -181 -143 c-99 -79 -192 -154 -207 -167 -14 -12 -31 -26 -36 -30 -18
-12 -109 -85 -125 -99 -8 -7 -40 -32 -70 -55 -30 -24 -57 -45 -60 -48 -4 -5
-64 -53 -120 -97 -69 -54 -249 -198 -265 -211 -11 -9 -97 -78 -190 -152 -94
-74 -172 -137 -175 -140 -3 -3 -59 -48 -125 -100 -66 -52 -122 -97 -125 -100
-3 -3 -36 -30 -75 -60 -38 -30 -72 -57 -75 -60 -3 -3 -26 -22 -52 -43 -42 -34
-50 -37 -70 -26 -13 7 -25 15 -28 19 -5 6 -213 173 -306 245 -21 17 -46 38
-56 48 -10 9 -22 17 -27 17 -5 0 -11 4 -13 8 -1 4 -52 47 -113 95 -60 48 -122
99 -138 112 -15 14 -31 25 -36 25 -5 0 -11 4 -13 8 -1 4 -23 23 -48 42 -24 19
-51 41 -58 48 -8 7 -30 25 -50 40 -21 15 -43 33 -50 40 -8 7 -30 25 -50 40
-21 15 -43 33 -50 40 -8 7 -30 25 -50 40 -43 32 -75 58 -110 90 -14 12 -28 22
-31 22 -3 0 -17 10 -31 23 -26 23 -66 55 -120 97 -18 14 -41 33 -51 43 -11 9
-21 17 -24 17 -3 0 -16 10 -29 23 -13 12 -33 29 -46 37 -12 8 -36 28 -54 44
-17 16 -48 40 -68 54 -21 13 -38 28 -38 31 0 4 -13 14 -29 24 -16 10 -49 35
-73 57 -24 22 -46 40 -49 40 -3 0 -21 14 -40 31 -33 30 -34 31 -14 45 11 8 30
24 43 34 12 11 25 20 28 20 4 0 14 8 23 18 9 10 36 33 61 52 25 19 53 41 62
49 9 9 23 21 30 26 7 6 33 26 58 45 57 45 57 44 171 137 53 43 113 92 134 108
21 17 66 53 100 80 33 28 78 64 100 80 21 17 47 38 57 48 10 9 22 17 27 17 5
0 11 3 13 8 2 4 25 25 53 47 27 22 55 45 61 50 18 16 45 37 94 74 25 19 50 39
55 45 6 6 30 27 55 46 59 46 68 53 83 65 7 6 46 38 87 70 41 33 81 66 90 72 8
7 80 65 160 129 80 64 147 120 148 125 2 5 9 9 16 9 6 0 18 9 26 20 8 11 19
20 26 20 6 0 19 9 29 20 18 20 18 20 59 -13 23 -18 97 -78 166 -133z"/>
<path d="M1340 7621 c-104 -21 -192 -91 -238 -187 l-27 -59 0 -3170 0 -3170
28 -56 c26 -54 59 -94 108 -132 13 -10 38 -29 54 -42 17 -13 64 -48 105 -79
41 -30 80 -59 85 -64 6 -5 49 -38 95 -73 47 -35 87 -66 90 -69 19 -19 91 -70
99 -70 5 0 11 -4 13 -8 2 -5 41 -38 88 -73 47 -35 90 -68 97 -74 25 -20 39
-31 93 -70 30 -22 64 -47 75 -57 11 -9 45 -35 75 -57 30 -22 61 -46 69 -52 7
-7 39 -23 69 -35 63 -25 160 -27 222 -4 44 17 113 59 123 76 4 7 13 19 20 26
27 27 49 68 62 117 13 52 13 160 -1 183 -5 7 -9 15 -9 18 -1 16 -29 70 -36 70
-5 0 -9 7 -9 15 0 8 -3 15 -7 15 -5 0 -24 15 -43 33 -19 18 -100 82 -180 142
-80 60 -149 113 -155 117 -29 23 -137 106 -161 123 -38 27 -136 102 -152 115
-42 36 -145 110 -153 110 -5 0 -9 4 -9 8 0 5 -24 26 -54 48 l-54 39 0 1197 c0
1123 1 1197 17 1185 61 -44 227 -172 231 -177 3 -4 12 -11 21 -16 9 -5 32 -21
50 -36 19 -14 63 -48 99 -75 178 -134 398 -301 415 -316 11 -9 54 -41 95 -72
41 -30 89 -66 107 -80 18 -15 33 -25 35 -23 2 1 14 -8 28 -21 45 -40 190 -151
199 -151 5 0 11 -4 13 -8 2 -4 41 -37 88 -72 47 -35 87 -68 88 -72 2 -4 8 -8
13 -8 5 0 40 -24 77 -52 37 -29 73 -57 80 -63 7 -5 21 -17 31 -25 9 -8 39 -31
67 -49 27 -19 51 -38 54 -41 3 -3 50 -39 105 -80 55 -41 102 -77 105 -80 3 -3
21 -17 40 -30 19 -13 37 -27 40 -30 3 -3 86 -66 185 -140 99 -74 191 -145 205
-157 14 -13 28 -23 32 -23 3 0 13 -6 20 -13 16 -16 414 -318 436 -332 9 -5 19
-13 22 -16 3 -3 32 -25 65 -50 33 -24 71 -54 85 -66 14 -13 28 -23 31 -23 3 0
15 -8 27 -18 44 -37 58 -48 92 -72 19 -13 37 -27 40 -30 3 -3 41 -32 85 -65
44 -32 87 -65 95 -72 8 -8 63 -50 122 -93 162 -120 231 -140 375 -106 37 8 64
25 201 130 73 55 143 108 155 116 22 15 303 227 322 243 6 4 33 25 61 45 27
21 57 43 65 50 7 7 57 44 109 83 52 38 102 75 110 82 9 7 42 33 75 57 33 25
62 47 65 50 3 3 48 37 100 75 52 38 97 72 100 75 3 3 50 39 105 80 55 40 102
76 105 79 8 9 637 484 666 502 13 9 38 28 54 42 16 15 34 27 39 27 5 0 11 4
13 8 2 5 48 42 103 83 125 92 114 83 155 119 19 16 38 30 43 30 4 0 18 9 30
20 12 11 92 73 177 137 85 64 167 126 181 137 14 12 36 28 49 36 12 8 28 20
34 25 6 6 74 57 151 114 77 58 145 110 151 118 6 7 14 13 17 13 5 0 78 54 232
172 6 4 35 27 65 49 30 23 61 46 67 52 10 8 13 -230 13 -1181 l0 -1191 -92
-70 c-51 -39 -97 -74 -103 -78 -5 -5 -28 -22 -50 -38 -22 -17 -46 -35 -55 -42
-8 -6 -103 -77 -210 -158 -107 -80 -210 -158 -229 -173 -18 -15 -41 -31 -50
-36 -9 -6 -27 -20 -41 -33 -14 -13 -28 -23 -32 -23 -17 0 -110 -100 -134 -145
-23 -41 -28 -65 -30 -135 -2 -76 1 -92 26 -145 16 -33 37 -69 47 -80 33 -36
98 -80 136 -90 4 -2 8 -3 10 -5 22 -18 150 -18 199 0 26 10 49 15 52 12 4 -3
6 0 6 6 0 7 5 12 11 12 6 0 16 6 23 13 8 6 23 19 35 27 20 14 531 396 591 441
46 35 258 194 286 214 174 126 216 171 253 275 8 23 7 6280 -1 6323 -10 51
-50 136 -81 169 -96 104 -256 130 -391 64 -29 -14 -66 -37 -82 -51 -16 -14
-32 -25 -35 -25 -3 0 -15 -8 -27 -17 -38 -33 -196 -151 -327 -247 -14 -11 -95
-71 -178 -133 -84 -62 -161 -119 -172 -127 -11 -9 -29 -22 -40 -31 -11 -8 -51
-38 -90 -67 -38 -28 -73 -56 -77 -62 -4 -6 -8 -7 -8 -3 0 5 -7 2 -15 -5 -23
-21 -36 -31 -100 -78 -33 -24 -61 -47 -63 -52 -2 -4 -7 -8 -12 -8 -7 0 -358
-258 -405 -298 -11 -10 -40 -31 -65 -47 -25 -17 -49 -35 -55 -41 -5 -6 -26
-22 -45 -34 -19 -13 -37 -27 -40 -30 -3 -3 -39 -30 -80 -60 -41 -29 -81 -60
-88 -67 -7 -7 -17 -13 -21 -13 -4 0 -16 -8 -27 -18 -10 -9 -75 -59 -144 -109
-69 -51 -132 -98 -140 -106 -8 -7 -37 -29 -65 -48 -27 -19 -52 -36 -55 -39 -5
-6 -216 -163 -335 -250 -33 -24 -69 -52 -79 -62 -11 -10 -25 -18 -32 -18 -7 0
-14 -4 -16 -9 -1 -5 -79 -65 -173 -135 -93 -69 -183 -136 -199 -148 -23 -18
-215 -161 -340 -253 -75 -55 -182 -135 -192 -143 -6 -5 -35 -27 -65 -48 -30
-21 -56 -41 -59 -44 -3 -3 -21 -17 -40 -30 -19 -13 -37 -27 -40 -30 -3 -3 -18
-15 -35 -27 l-30 -20 -160 119 c-88 66 -245 183 -350 261 -104 78 -191 145
-193 149 -2 4 -8 8 -14 8 -6 0 -22 10 -37 23 -15 12 -38 30 -52 40 -67 49
-416 309 -429 320 -8 7 -37 28 -65 47 -27 19 -55 40 -61 45 -6 6 -22 18 -35
28 -70 51 -294 217 -366 271 -44 33 -93 70 -108 81 -97 71 -293 218 -308 230
-9 8 -21 15 -26 15 -5 0 -11 4 -13 9 -1 5 -39 34 -83 66 -44 31 -92 68 -107
81 -15 13 -30 24 -33 24 -5 0 -36 25 -60 48 -8 6 -16 12 -18 12 -5 0 -405 296
-438 324 -9 7 -43 33 -77 56 -34 24 -62 48 -62 52 0 4 -6 8 -12 8 -7 0 -29 14
-48 30 -57 48 -59 50 -64 50 -4 0 -207 151 -249 185 -9 8 -22 15 -27 15 -6 0
-10 3 -10 8 0 4 -17 18 -38 32 -20 14 -39 27 -42 30 -19 19 -172 130 -180 130
-6 0 -10 4 -10 8 0 5 -22 24 -50 43 -27 19 -50 37 -50 42 0 4 -6 7 -12 7 -7 0
-28 14 -47 30 -18 17 -37 30 -40 30 -4 0 -16 8 -27 19 -40 37 -105 71 -161 86
-61 16 -78 17 -133 6z m460 -1023 c37 -29 78 -60 90 -68 12 -8 31 -23 43 -32
12 -9 72 -54 132 -99 61 -44 121 -90 135 -100 126 -97 253 -189 260 -189 5 0
10 -4 12 -8 3 -7 44 -39 308 -234 47 -35 89 -66 95 -71 5 -4 28 -21 50 -37 22
-17 51 -39 65 -49 14 -10 66 -49 115 -85 50 -36 95 -69 100 -74 6 -4 24 -18
40 -30 17 -12 41 -31 55 -42 14 -10 86 -64 160 -118 74 -55 143 -107 153 -116
9 -9 20 -16 23 -16 5 0 77 -54 102 -77 7 -7 16 -13 20 -13 4 0 22 -14 41 -30
18 -17 37 -30 40 -30 3 0 17 -10 31 -22 14 -13 42 -34 62 -48 21 -14 38 -28
38 -32 0 -5 6 -8 14 -8 8 0 16 -3 18 -7 3 -7 132 -105 188 -143 12 -8 28 -20
34 -25 30 -28 137 -105 145 -105 5 0 11 -4 13 -9 2 -7 103 -84 206 -159 21
-15 78 -57 107 -79 6 -5 28 -21 50 -38 22 -16 46 -35 53 -42 7 -7 17 -13 22
-13 5 0 17 -8 27 -18 10 -10 52 -43 93 -72 41 -30 80 -58 85 -62 6 -4 23 -18
38 -32 l28 -25 -23 -12 c-13 -7 -66 -44 -118 -83 -125 -94 -119 -89 -141 -109
-10 -9 -19 -15 -19 -12 0 3 -7 0 -15 -7 -32 -27 -42 -34 -100 -78 -33 -24 -64
-48 -70 -52 -5 -5 -129 -97 -275 -206 -146 -108 -274 -205 -284 -214 -11 -10
-25 -18 -32 -18 -7 0 -14 -4 -16 -8 -1 -5 -88 -72 -192 -150 l-189 -141 -27
22 c-15 12 -40 31 -55 42 -25 18 -47 34 -120 91 -21 16 -145 109 -205 154 -19
14 -67 51 -107 83 -40 31 -77 57 -82 57 -5 0 -11 4 -13 9 -1 5 -78 65 -169
133 -92 69 -173 130 -180 137 -8 6 -59 45 -114 86 -55 41 -107 80 -115 87 -8
7 -32 26 -54 42 -22 16 -45 33 -51 38 -16 13 -79 61 -109 83 -65 47 -122 92
-146 113 -14 12 -30 22 -37 22 -6 0 -13 4 -15 9 -1 5 -37 34 -78 65 -41 30
-82 62 -91 71 -9 8 -21 15 -27 15 -5 0 -12 3 -14 8 -1 4 -22 22 -45 40 l-42
33 1 1079 c0 594 2 1080 5 1080 3 0 35 -24 73 -52z m7736 -2130 c-8 -5 -21
-14 -28 -21 -7 -7 -85 -67 -173 -133 -88 -65 -162 -121 -165 -124 -3 -3 -39
-30 -80 -60 -41 -30 -88 -67 -105 -82 -16 -15 -34 -28 -38 -28 -8 0 -21 -10
-55 -40 -18 -17 -82 -65 -118 -90 -52 -36 -198 -147 -220 -168 -12 -12 -26
-22 -28 -22 -9 0 -101 -71 -104 -81 -2 -5 -8 -9 -13 -9 -5 0 -31 -17 -57 -37
-27 -21 -63 -49 -82 -63 -51 -38 -144 -108 -155 -117 -5 -5 -55 -42 -110 -83
-55 -41 -102 -77 -105 -80 -3 -3 -30 -23 -60 -45 -30 -22 -57 -42 -60 -45 -3
-4 -31 -25 -63 -49 l-58 -42 -32 23 c-44 31 -548 405 -567 421 -8 7 -37 28
-65 47 -27 19 -61 45 -75 58 -13 12 -28 22 -32 22 -3 0 -13 6 -20 13 -7 7 -42
34 -78 60 -36 27 -73 54 -82 62 -9 7 -29 22 -45 32 -15 10 -37 26 -48 36 -11
10 -35 27 -52 38 -18 12 -33 25 -33 30 0 5 -6 9 -13 9 -7 0 -24 10 -37 23 -14
12 -48 38 -75 56 -28 19 -52 38 -55 41 -3 3 -39 30 -80 60 -41 29 -77 56 -80
58 -8 6 95 88 234 187 31 22 56 43 56 47 0 4 3 7 8 5 4 -1 14 4 22 11 8 7 40
31 70 53 30 22 62 45 70 52 8 7 49 37 90 67 41 30 80 58 85 63 6 4 28 21 50
37 22 16 45 33 50 38 6 4 89 66 185 137 96 71 177 133 178 137 2 5 8 8 14 8 5
0 15 6 23 13 21 20 48 40 88 67 20 14 37 28 37 33 0 4 4 7 9 7 4 0 147 104
317 231 170 126 320 238 332 247 25 18 90 66 107 80 6 4 48 36 95 70 47 35 92
68 100 75 8 7 40 30 70 52 30 22 64 48 74 57 11 10 23 18 27 18 3 0 22 13 40
30 19 16 37 30 41 30 4 0 13 6 20 13 7 7 58 46 113 86 55 41 102 78 103 83 2
4 10 8 18 8 8 0 14 5 14 10 0 6 5 10 11 10 6 0 16 6 23 13 7 6 25 21 40 32 16
11 34 26 41 33 8 6 18 12 23 12 6 0 12 3 14 8 2 4 26 24 53 44 28 21 55 41 60
45 6 5 71 53 145 108 149 111 145 107 180 134 l25 19 3 -1086 c2 -942 0 -1087
-12 -1094z m-3882 -743 c3 -8 12 -15 21 -15 8 0 15 -3 15 -7 0 -5 20 -21 45
-38 24 -16 45 -33 45 -37 0 -5 7 -8 15 -8 8 0 15 -4 15 -8 0 -4 15 -16 33 -27
17 -10 37 -24 42 -30 6 -6 71 -56 145 -111 74 -54 140 -102 145 -107 6 -4 46
-34 90 -67 44 -32 85 -63 90 -67 6 -5 44 -33 85 -63 41 -30 84 -63 94 -72 11
-10 23 -18 26 -18 4 0 20 -11 36 -25 16 -14 44 -35 62 -46 17 -11 32 -25 32
-30 0 -5 5 -9 11 -9 6 0 24 -10 39 -22 15 -13 37 -30 50 -38 12 -8 32 -23 44
-33 11 -9 55 -42 96 -72 41 -31 82 -61 90 -68 9 -6 32 -25 53 -40 l38 -29 -43
-31 c-24 -17 -45 -34 -48 -37 -3 -3 -21 -17 -40 -30 -19 -13 -37 -27 -40 -30
-3 -3 -68 -52 -145 -110 -146 -110 -158 -119 -178 -135 -7 -6 -104 -79 -217
-164 -113 -85 -226 -172 -251 -193 -26 -21 -50 -38 -54 -38 -3 0 -12 -6 -20
-12 -16 -16 -46 -39 -170 -132 -55 -42 -104 -79 -110 -84 -5 -4 -37 -28 -70
-52 -33 -25 -61 -48 -63 -52 -6 -12 -42 -9 -57 4 -20 18 -34 29 -80 63 -22 17
-42 33 -45 36 -3 3 -28 22 -57 41 -29 20 -49 38 -46 42 4 3 0 6 -8 6 -9 0 -24
8 -35 18 -11 9 -64 51 -119 92 -55 41 -104 78 -110 83 -5 4 -64 49 -130 98
-66 49 -127 95 -135 102 -9 7 -61 46 -115 87 -55 41 -101 78 -103 82 -2 5 -9
8 -16 8 -6 0 -18 9 -26 20 -8 11 -18 20 -23 20 -6 0 -72 48 -124 90 -6 5 -69
53 -140 106 -70 53 -130 98 -133 101 -3 2 3 9 12 14 9 5 23 15 30 22 34 32
138 107 147 107 6 0 11 3 11 8 0 4 23 22 50 41 28 19 50 37 50 41 0 4 12 13
27 21 15 8 35 19 43 26 8 7 51 39 95 72 44 34 85 64 90 69 6 4 64 47 130 96
66 49 122 93 123 98 2 4 8 8 12 8 5 0 58 37 118 83 59 45 121 91 136 102 73
54 133 98 152 113 11 9 36 28 55 42 19 13 39 28 44 32 59 48 142 107 151 107
7 1 14 -6 18 -14z"/>
</g>
</svg>
